# xmcd
#
# Track frame offsets: 
#        182
#        17112
#        31025
#        46732
#        59170
#        73052
#        87037
#        101030
#        114752
#        126185
#        140445
#        149925
#
# Disc length: 2198 seconds
#
# Revision: 2
# Processed by: cddbd v1.5.2PL0 Copyright (c) Steve Scherf et al.
# Submitted via: ExactAudioCopyFreeDBPlugin 1.0
#
DISCID=ab08940c
DTITLE=John Lee Hooker - Plays and Sings The Blues
DYEAR=1989
DGENRE=Blues
TTITLE0=The Journey
TTITLE1=I Don't Want Your Money
TTITLE2=Hey, Baby
TTITLE3=Mad Man Blues
TTITLE4=Bluebird
TTITLE5=M. Merriweather - Worried Life Blues
TTITLE6=Apologize
TTITLE7=Lonely Boy Boogie
TTITLE8=McKinley Morganfield - Please Don't Go
TTITLE9=Dreamin' Blues
TTITLE10=Hey Boogie
TTITLE11=Just Me And My Telephone
EXTD=
EXTT0=
EXTT1=
EXTT2=
EXTT3=
EXTT4=
EXTT5=
EXTT6=
EXTT7=
EXTT8=
EXTT9=
EXTT10=
EXTT11=
PLAYORDER=
